<svg width="150" height="138" fill="none" xmlns="http://www.w3.org/2000/svg"><g id="Group"><g id="Group_2"><g id="Group_3"><path id="Vector" d="M42.372 100.265c26.481 11.675 64.063 15.049 87.148-5.608.632-.56.527-1.545.009-2.152-5.598-6.426-14.355-9.857-22.177-12.72-9.344-3.434-18.53-5.684-28.542-5.776-9.228-.089-17.396 1.724-25.63 5.935-4.129 2.1-8.071 4.558-11.942 7.087a396.209 396.209 0 00-5.166 3.461c-1.202.82-2.831 1.504-3.571 2.785-.437.757-.118 1.613.551 2.056 2.925 2.025 6.235 3.235 9.32 4.932 1.706.93 3.244-1.685 1.516-2.626-3.085-1.697-6.395-2.908-9.31-4.9l.551 2.056c.498-.862 2.935-1.976 3.898-2.624 1.61-1.089 3.24-2.165 4.859-3.22 3.496-2.267 7.064-4.466 10.788-6.35 7.942-4.045 15.771-5.66 24.671-5.537 9.292.125 17.768 2.245 26.445 5.377 7.549 2.706 16.162 5.997 21.577 12.206 0-.729.009-1.424.009-2.153-11.122 9.941-26.199 13.621-40.806 13.817-14.553.199-29.361-2.803-42.703-8.684-1.749-.758-3.286 1.856-1.495 2.638z" fill="#DBDBDB"/></g></g><g id="Group_4"><g id="Group_5"><path id="Vector_2" d="M37.663 95.165c15.608-2.56 31.455-3.301 47.253-3.034 6.801.117 13.568-.095 20.37-.174 7.107-.072 14.45.077 21.193 2.625 1.819.686 2.593-2.257.774-2.943-6.499-2.436-13.604-2.755-20.457-2.734-7.3.017-14.56.308-21.861.183-16.081-.262-32.14.553-48.022 3.15-1.955.329-1.151 3.258.75 2.927z" fill="#DBDBDB"/></g></g><g id="Group_6"><g id="Group_7"><path id="Vector_3" d="M118.125 94.775c-16.292 3.454-32.856 7.282-49.627 5.641-1.935-.193-1.92 2.842.014 3.034 17.009 1.667 33.86-2.221 50.384-5.737 1.917-.406 1.134-3.324-.771-2.938z" fill="#DBDBDB"/></g></g><g id="Group_8"><g id="Group_9"><path id="Vector_4" d="M94.014 82.927c-9.561-1.065-18.946.185-28.386 1.627-1.93.286-1.127 3.216.783 2.918 9.22-1.402 18.327-2.56 27.63-1.531 1.932.246 1.897-2.8-.027-3.014z" fill="#DBDBDB"/></g></g><g id="Group_10"><g id="Group_11"><path id="Vector_5" d="M64.054 95.973c-4.084-.453-8.118-1.38-12.245-1.466-.825-.029-1.512.724-1.506 1.54-.007.836.704 1.499 1.541 1.506 4.128.086 8.162 1.014 12.246 1.466.822.083 1.515-.778 1.506-1.54-.024-.882-.732-1.403-1.542-1.506z" fill="#DBDBDB"/></g></g><g id="Group_12"><g id="Group_13"><g id="Group_14"><path id="Vector_6" d="M15.69 72.672c28.999-1.525 63.856-15.525 75.196-44.393.332-.817-.406-1.579-1.085-1.86-8.017-3.255-17.602-2.289-25.95-1.28-9.224 1.118-17.81 3.025-26.262 7.027-8.483 4.012-15.24 9.16-20.9 16.68-2.907 3.87-5.438 8.011-7.865 12.214-1.08 1.87-2.15 3.773-3.209 5.656-.743 1.336-1.89 2.69-1.972 4.24-.035.596.494 1.379 1.141 1.472 3.644.535 7.247.121 10.905.244 1.954.064 1.94-2.97-.014-3.034-3.375-.128-6.773.32-10.129-.132.384.501.758.97 1.141 1.471.059-.975 1.86-3.27 2.454-4.299a256.502 256.502 0 013.037-5.307c2.204-3.77 4.514-7.48 7.148-10.974 5.411-7.187 12.104-11.98 20.204-15.765 8.089-3.764 16.37-5.483 25.176-6.507 7.874-.917 16.812-1.78 24.33 1.271-.365-.63-.72-1.228-1.086-1.86-5.463 13.882-17.32 23.93-30.275 30.684-12.909 6.724-27.469 10.674-41.98 11.43-1.963.1-1.948 3.133-.006 3.022z" fill="#DBDBDB"/></g></g><g id="Group_15"><g id="Group_16"><path id="Vector_7" d="M8.852 70.433c13.168-9.6 27.35-17.606 42.02-24.658 6.046-2.898 11.886-6.166 17.833-9.232 5.981-3.076 12.317-6.086 19.07-6.81 1.917-.21 1.923-3.232-.014-3.034-13.266 1.419-24.626 9.878-36.38 15.475-15.37 7.293-30.276 15.582-44.036 25.625-1.558 1.145-.052 3.78 1.507 2.634z" fill="#DBDBDB"/></g></g><g id="Group_17"><g id="Group_18"><path id="Vector_8" d="M80.677 33.676c-12.864 10.336-25.836 21.199-41.38 27.242-1.804.696-1.033 3.634.783 2.917C56.158 57.596 69.5 46.528 82.82 35.84c1.52-1.224-.636-3.366-2.144-2.163z" fill="#DBDBDB"/></g></g><g id="Group_19"><g id="Group_20"><path id="Vector_9" d="M54.164 33.807c-9.032 3.359-16.84 8.629-24.644 14.182-1.58 1.133-.073 3.768 1.506 2.635 7.565-5.383 15.154-10.612 23.92-13.9 1.825-.683 1.043-3.6-.782-2.917z" fill="#DBDBDB"/></g></g><g id="Group_21"><g id="Group_22"><path id="Vector_10" d="M33.313 58.948c-3.972 1.49-8.101 2.523-11.942 4.369-.706.349-.975 1.398-.58 2.074.466.746 1.314.927 2.075.582a28.69 28.69 0 012.579-1.117c.968-.366 1.945-.698 2.922-1.03 1.908-.636 3.814-1.217 5.704-1.918.745-.27 1.345-1.017 1.068-1.85-.183-.75-1.015-1.398-1.826-1.11z" fill="#DBDBDB"/></g></g></g></g></svg>