<svg width="251" height="256" fill="none" xmlns="http://www.w3.org/2000/svg"><g id="Group"><g id="Group_2"><g id="Group_3"><path id="Vector" d="M210.521 150.44c-10.722-3.69-24.011-10.262-24.131-23.406-.069-8.92 5.05-17.148 7.508-25.517 4.726-16.1-1.38-33.734-11.667-46.312-10.558-12.925-26.032-22.05-42.537-24.795-8.107-1.361-16.487-1.127-24.436.989-7.982 2.117-15.614 6.068-22.67 10.309-15.703 9.471-29.652 22.158-40.906 36.62-11.052 14.214-19.992 30.724-23.32 48.577-1.522 8.242-1.868 16.868-.394 25.16 1.786 9.967 6.688 19.154 13.116 26.883 13.157 15.806 32.806 26.369 52.703 30.917 19.847 4.5 40.25-.652 54.641-15.279 7.517-7.64 12.534-17.03 17.404-26.464 2.474-4.774 5.407-9.871 10.825-11.631 5.338-1.741 10.832-.038 15.773 2.088 4.252 1.856 8.291 4.173 12.542 5.996.755.333 1.477.099 1.941-.596 2.054-3.19 4.506-6.07 5.784-9.706.594-1.735-2.195-2.375-2.789-.639-1.158 3.34-3.631 6.074-5.514 9.017.657-.199 1.283-.397 1.94-.596-7.927-3.391-15.766-9.149-24.736-9.122-11.155.048-15.751 8.922-20.221 17.696-4.776 9.333-10.503 18.308-18.495 25.251-7.63 6.623-17.08 10.972-27.094 12.279-20.513 2.694-42.47-6.111-58.75-18.19-8.321-6.179-15.685-13.814-20.683-22.934-4.671-8.53-6.648-17.891-6.45-27.597.349-17.823 7.536-34.974 17.129-49.74C57.091 74.238 70.3 60.635 85.282 49.924c13.416-9.577 28.925-17.94 45.828-17.492 16.839.451 33.245 8.316 44.986 20.248 11.39 11.604 19.353 29.065 15.643 45.554-1.89 8.432-6.59 16.047-7.941 24.64-1.455 9.373 3.003 17.797 10.667 23.139 4.668 3.252 9.981 5.382 15.333 7.203 1.833.622 2.458-2.183.723-2.776z" fill="#E1D4DB"/></g></g><g id="Group_4"><g id="Group_5"><path id="Vector_2" d="M200.642 151.435c-6.077-2.753-12.414-4.996-18.233-8.292-2.835-1.594-5.518-3.484-7.825-5.807-2.576-2.638-4.297-5.887-6.034-9.119-5.421-10.239-8.304-21.644-14.395-31.538-11.377-18.437-32.705-29.886-53.996-31.879-11.887-1.11-23.906.827-34.62 6.188-1.658.83-.14 3.26 1.502 2.446 19.37-9.67 42.928-7.182 61.484 3.14 9.871 5.5 18.423 13.307 24.106 23.133 5.666 9.778 8.491 20.877 13.902 30.793 3.333 6.112 7.235 10.781 13.244 14.443 6.14 3.723 12.999 6.079 19.519 9.029 1.676.756 3.038-1.765 1.346-2.537z" fill="#E1D4DB"/></g></g><g id="Group_6"><g id="Group_7"><path id="Vector_3" d="M168.208 143.158c-32.933-5.103-68.055-5.636-98.333-21.09-8.787-4.481-16.788-10.233-23.649-17.301-1.272-1.32-3.23.767-1.959 2.086 24.795 25.475 61.408 31.206 95.106 35.394 9.413 1.174 18.837 2.234 28.21 3.684 1.79.299 2.432-2.49.625-2.773z" fill="#E1D4DB"/></g></g><g id="Group_8"><g id="Group_9"><path id="Vector_4" d="M151.802 125.464C131.331 99.997 98.095 86.791 66.15 84.279c-1.835-.152-1.73 2.71.089 2.847 30.809 2.419 63.369 15.242 83.115 39.809 1.13 1.437 3.578-.034 2.448-1.471z" fill="#E1D4DB"/></g></g><g id="Group_10"><g id="Group_11"><path id="Vector_5" d="M123.723 119.202c-13.271-1.844-25.677-7.618-36.818-14.873-1.537-1.004-2.883 1.533-1.346 2.536 11.323 7.363 24.024 13.258 37.522 15.127 1.806.25 2.479-2.541.642-2.79z" fill="#E1D4DB"/></g></g><g id="Group_12"><g id="Group_13"><path id="Vector_6" d="M157.578 154.815c-14.214 4.21-28.842 7.656-43.751 7.257-15.964-.447-30.674-5.84-44.76-13.034-9.824-5.014-19.824-11.011-25.68-20.653-.956-1.589-3.403-.086-2.447 1.503 5.087 8.355 13.155 14.17 21.545 18.907 7.813 4.382 16.017 8.347 24.511 11.233 14.371 4.918 29.464 5.992 44.471 3.813 9.139-1.344 18.087-3.621 26.927-6.25 1.764-.542.95-3.285-.816-2.776z" fill="#E1D4DB"/></g></g><g id="Group_14"><g id="Group_15"><path id="Vector_7" d="M152.962 166.152c-10.294 11.501-23.818 19.688-39.066 22.458-17.341 3.127-34.938-.862-49.063-11.391-8.523-6.367-15.78-14.249-23.506-21.532-1.335-1.253-3.31.818-1.959 2.087 14.366 13.548 27.949 28.968 48.176 33.198 15.533 3.245 31.792 1.237 45.945-5.983 8.193-4.179 15.442-10.029 21.575-16.864 1.219-1.399-.866-3.357-2.102-1.973z" fill="#E1D4DB"/></g></g><g id="Group_16"><g id="Group_17"><path id="Vector_8" d="M107.826 174.716c-10.144.274-20.35-1.926-28.405-8.39-1.428-1.152-3.387.934-1.959 2.087 8.655 6.962 19.502 9.483 30.438 9.166 1.861-.043 1.77-2.922-.074-2.863z" fill="#E1D4DB"/></g></g><g id="Group_18"><g id="Group_19"><path id="Vector_9" d="M133.517 150.692c-12.36-.172-24.527-2.424-36.517-5.264-1.795-.429-2.436 2.361-.641 2.789 12.219 2.898 24.645 5.174 37.232 5.339 1.862.022 1.773-2.825-.074-2.864z" fill="#E1D4DB"/></g></g><g id="Group_20"><g id="Group_21"><path id="Vector_10" d="M70.623 136.148c-6.341-2.907-12.6-5.768-17.3-11.092-1.225-1.369-3.184.717-1.96 2.087 4.87 5.512 11.392 8.527 17.947 11.54 1.643.757 3.005-1.764 1.313-2.535z" fill="#E1D4DB"/></g></g><g id="Group_22"><g id="Group_23"><path id="Vector_11" d="M66.892 103.347c-5.94-2.499-11.574-5.59-17.53-8.072-1.69-.707-3.035 1.83-1.345 2.536 5.94 2.499 11.574 5.59 17.53 8.072 1.706.691 3.052-1.813 1.345-2.536z" fill="#E1D4DB"/></g></g><g id="Group_24"><g id="Group_25"><path id="Vector_12" d="M179.672 115.2c-3.272-13.498-5.597-27.77-14.29-39.072-9.149-11.885-22.745-20.503-37.252-24.073-8.437-2.079-17.195-2.545-25.836-1.832-1.841.156-1.752 3.003.089 2.847 19.527-1.61 37.907 3.617 52.803 16.502 6.757 5.84 11.885 12.947 15.046 21.316 3.055 8.112 4.636 16.725 6.697 25.128.445 1.799 3.171.967 2.743-.816z" fill="#E1D4DB"/></g></g><g id="Group_26"><g id="Group_27"><path id="Vector_13" d="M180.501 77.04c-3.721-6.635-7.43-13.382-12.468-19.148-5.14-5.892-11.617-10.058-19.09-12.362-1.749-.543-2.39 2.246-.641 2.79 7.244 2.246 13.35 6.44 18.243 12.226 4.623 5.44 8.029 11.808 11.51 17.996.908 1.607 3.339.12 2.446-1.503z" fill="#E1D4DB"/></g></g></g></svg>