<svg width="25" height="20" fill="none" xmlns="http://www.w3.org/2000/svg"><g id="Twiter"><path id="Vector" d="M24.256 3.01c-.898.39-1.847.647-2.82.763a4.86 4.86 0 002.16-2.672 9.851 9.851 0 01-3.118 1.172 4.941 4.941 0 00-3.584-1.53c-2.712 0-4.908 2.163-4.908 4.83-.002.37.04.74.127 1.101a13.991 13.991 0 01-10.119-5.05 4.77 4.77 0 00-.667 2.428c0 1.675.874 3.155 2.193 4.023a4.86 4.86 0 01-2.232-.603v.06c0 2.342 1.695 4.291 3.938 4.735-.422.112-.857.17-1.293.17a4.7 4.7 0 01-.923-.09c.624 1.918 2.439 3.314 4.588 3.354A9.949 9.949 0 01.33 17.7a13.892 13.892 0 007.514 2.183c9.04 0 13.978-7.362 13.978-13.747 0-.21-.005-.419-.015-.623a9.892 9.892 0 002.449-2.502z" fill="#274C5B"/></g></svg>