<svg width="25" height="20" fill="none" xmlns="http://www.w3.org/2000/svg"><g id="Twiter"><path id="Vector" d="M24.256 2.946c-.898.39-1.847.647-2.82.763a4.86 4.86 0 002.16-2.672 9.85 9.85 0 01-3.118 1.171 4.941 4.941 0 00-3.584-1.53c-2.712 0-4.908 2.163-4.908 4.83-.002.371.04.74.127 1.102A13.991 13.991 0 011.994 1.56a4.77 4.77 0 00-.667 2.428c0 1.675.874 3.155 2.193 4.022a4.86 4.86 0 01-2.232-.603v.06c0 2.343 1.695 4.292 3.938 4.735a5 5 0 01-1.293.17 4.7 4.7 0 01-.923-.09c.624 1.919 2.439 3.315 4.588 3.355A9.949 9.949 0 01.33 17.635a13.89 13.89 0 007.514 2.183c9.04 0 13.978-7.362 13.978-13.747 0-.209-.005-.418-.015-.623a9.892 9.892 0 002.449-2.502z" fill="#274C5B"/></g></svg>