<svg width="181" height="175" fill="none" xmlns="http://www.w3.org/2000/svg"><g id="Group"><g id="Group_2"><g id="Group_3"><path id="Vector" d="M114.317 60.83c-11.233-8.499-24.712-16.26-39.013-17.31-13.564-1.005-25.063 5.876-31.61 17.718-5.962 10.777-8.181 23.629-9.049 35.823-.968 13.632-.218 27.781 3.326 41.055 2.526 9.392 6.547 19.455 15.672 24.131 7.964 4.096 17.314 2.862 25.492.25 9.971-3.172 19.194-8.553 27.796-14.433 8.086-5.489 16.391-11.557 23.108-18.683 8.646-9.166 13.563-21.269 10.352-33.916-3.699-14.57-14.959-24.556-25.212-34.725-1.38-1.364-3.738.547-2.349 1.934 8.718 8.632 18.254 16.899 22.992 28.568 4.097 10.056 2.997 20.721-2.958 29.728-5.445 8.191-13.7 14.37-21.506 20.189-7.615 5.653-15.658 10.881-24.272 14.893-7.796 3.645-16.754 6.766-25.507 5.538-9.043-1.285-14.731-7.952-18.034-16.113-4.592-11.281-6.053-23.933-6.234-35.98-.187-12.473 1.022-25.329 4.94-37.173 4.352-13.19 13.436-24.88 28.185-25.798 15.261-.959 30.315 7.893 42.097 16.79 1.593 1.188 3.355-1.286 1.784-2.485z" fill="#D3CBCF"/></g></g><g id="Group_4"><g id="Group_5"><path id="Vector_2" d="M115.201 60.73c-2.702-2.54-5.165-5.616-5.754-9.369-.485-3.103.443-6.195 1.877-8.924 3.363-6.376 8.943-11.414 13.634-16.777 2.447-2.78 4.812-5.685 6.394-9.096-.958-.241-1.937-.473-2.917-.704-3.07 15.106-.879 34.795-15.745 44.064-1.638 1.027.289 3.378 1.937 2.373 15.691-9.798 13.583-30.193 16.826-46.1.365-1.796-2.249-2.18-2.926-.726-3.054 6.532-9.068 11.55-13.682 16.905-4.456 5.178-9.264 11.584-8.479 18.863.492 4.546 3.272 8.39 6.497 11.446 1.414 1.322 3.772-.589 2.338-1.956z" fill="#D3CBCF"/></g></g><g id="Group_6"><g id="Group_7"><path id="Vector_3" d="M116.766 61.797c8.468-7.426 19.671-13.13 31.178-10.43l-1.077-2.41c-3.234 5.06-8.716 8.474-14.203 10.632-5.486 2.159-12.045 3.404-17.751 1.27-1.842-.677-2.911 2.157-1.069 2.833 6.338 2.36 13.481 1.176 19.637-1.148 6.102-2.326 12.287-6.188 15.847-11.823.65-1.04.053-2.138-1.077-2.41-12.25-2.876-24.424 3.208-33.432 11.09-1.454 1.32.483 3.693 1.947 2.396z" fill="#D3CBCF"/></g></g><g id="Group_8"><g id="Group_9"><path id="Vector_4" d="M113.975 60.662c-16.854-7.298-23.254-27.97-14.913-43.933-.864.145-1.728.29-2.58.403 2.808 3.136 5.933 5.969 8.72 9.114 2.652 2.964 5.428 6.382 5.752 10.493.161 1.963 3.135 1.49 3.007-.46-.682-8.771-9.742-15.082-15.141-21.102-.833-.913-2.051-.61-2.58.404-9.12 17.49-1.565 39.974 16.678 47.883 1.794.804 2.863-2.03 1.057-2.802z" fill="#D3CBCF"/></g></g><g id="Group_10"><g id="Group_11"><path id="Vector_5" d="M69.615 53.718c-1.69 2.04-2.218 4.66-2.818 7.177-.08.357.118.858.346 1.13.228.273.631.522 1.01.54.412.03.829-.05 1.123-.342.326-.28.448-.601.53-1.013-.015.087-.105.422 0 0 .014-.086.05-.183.064-.27.039-.15.068-.324.106-.475.078-.303.145-.627.244-.94.153-.55.305-1.1.49-1.637.075-.248.182-.483.289-.718.059-.107.107-.236.166-.342a.643.643 0 01.083-.171c.129-.245-.188.352-.059.106.269-.468.557-.891.878-1.302.502-.6.296-1.712-.371-2.137-.7-.437-1.554-.27-2.08.395z" fill="#D3CBCF"/></g></g><g id="Group_12"><g id="Group_13"><path id="Vector_6" d="M95.234 68.504c-.34 1.437-.927 2.797-1.588 4.11-.047.074-.07.139-.117.213.105-.18.058-.107-.012.032-.083.171-.176.32-.26.49-.175.32-.373.65-.559.947-.395.658-.813 1.327-1.231 1.996-.418.669-.37 1.665.371 2.136.646.435 1.658.384 2.122-.36 1.65-2.664 3.378-5.391 4.12-8.48.104-.422.14-.759-.04-1.16-.15-.335-.494-.69-.837-.804-.709-.219-1.774.07-1.97.88z" fill="#D3CBCF"/></g></g><g id="Group_14"><g id="Group_15"><path id="Vector_7" d="M122.918 91.95l-.069.914c-.017.142-.033.283-.072.434-.014.087-.039.151-.053.238-.002.054-.077.302-.012.032s-.01-.022-.012.032c-.015.087-.039.151-.053.238-.039.151-.1.312-.138.463a7.75 7.75 0 01-.326.816c-.071.138-.12.267-.19.406-.117.213 0 0 .036-.097-.046.074-.071.139-.117.213-.151.255-.325.52-.499.785-.173.265-.379.518-.562.76-.125.137-.228.263-.353.4-.091.093-.292.237.022-.01-.079.061-.125.135-.204.197-.294.292-.502.6-.529 1.013-.047.37.086.845.346 1.13.511.549 1.532.815 2.143.221 1.11-1.139 2.04-2.385 2.717-3.839a10.48 10.48 0 00.953-3.986c.043-.796-.489-1.629-1.345-1.701-.791-.048-1.638.491-1.683 1.341z" fill="#D3CBCF"/></g></g><g id="Group_16"><g id="Group_17"><path id="Vector_8" d="M74.305 78.047c-1.072 2.353-2.159 4.793-2.275 7.442-.043.795.489 1.629 1.344 1.701.77.058 1.639-.491 1.684-1.341.014-.622.114-1.23.236-1.846a.647.647 0 01.051-.184c-.06.402-.038.152-.024.065l.116-.454c.077-.302.187-.592.274-.872.405-1.171.917-2.284 1.428-3.396.344-.716-.137-1.732-.877-1.963-.825-.301-1.59.067-1.957.848z" fill="#D3CBCF"/></g></g><g id="Group_18"><g id="Group_19"><path id="Vector_9" d="M97.158 94.309c-.535 2.247-1.576 4.372-2.55 6.468-.335.738.136 1.732.877 1.964.814.278 1.601-.1 1.947-.871.953-2.086 1.994-4.21 2.551-6.468.104-.421.139-.758-.04-1.16-.15-.334-.495-.69-.838-.803-.375-.127-.809-.147-1.153.033-.332.148-.702.448-.794.837z" fill="#D3CBCF"/></g></g><g id="Group_20"><g id="Group_21"><path id="Vector_10" d="M53.756 88.143c-.953 3.986-2.357 7.853-3.31 11.84-.182.778.042 1.695.879 1.963.696.251 1.761-.037 1.947-.87.952-3.986 2.356-7.853 3.309-11.84.183-.778-.041-1.695-.878-1.964-.686-.228-1.752.06-1.947.87z" fill="#D3CBCF"/></g></g><g id="Group_22"><g id="Group_23"><path id="Vector_11" d="M76.518 104.794c-.475 2.086-.518 4.247-.992 6.333-.08.357.118.858.346 1.131.228.272.63.521 1.01.538.412.03.828-.048 1.122-.341.327-.279.448-.601.53-1.013.474-2.086.517-4.247.992-6.333.08-.357-.118-.857-.346-1.13-.228-.273-.631-.521-1.011-.539-.412-.03-.828.049-1.122.341-.316.302-.448.602-.53 1.013z" fill="#D3CBCF"/></g></g><g id="Group_24"><g id="Group_25"><path id="Vector_12" d="M107.792 117.8c-1.637 2.633-3.052 5.407-4.912 7.899-.482.644-.307 1.689.371 2.136.71.459 1.616.349 2.122-.36 1.85-2.513 3.275-5.265 4.912-7.898.418-.668.371-1.665-.371-2.136-.657-.402-1.67-.351-2.122.359z" fill="#D3CBCF"/></g></g><g id="Group_26"><g id="Group_27"><path id="Vector_13" d="M61.54 116.898c-.642 2.722-1.755 5.281-2.418 8.014-.104.421-.139.758.04 1.16.15.335.495.689.838.804.696.251 1.762-.038 1.947-.871.641-2.723 1.754-5.282 2.417-8.014.104-.422.14-.759-.04-1.16-.15-.335-.494-.69-.837-.804-.687-.229-1.752.06-1.948.871z" fill="#D3CBCF"/></g></g><g id="Group_28"><g id="Group_29"><path id="Vector_14" d="M86.922 126.701a153.33 153.33 0 00-3.375 7.774c-.28.74.105 1.72.878 1.963.782.266 1.633-.087 1.947-.87 1.028-2.629 2.186-5.207 3.375-7.773.333-.739-.138-1.733-.878-1.964-.815-.278-1.602.1-1.947.87z" fill="#D3CBCF"/></g></g><g id="Group_30"><g id="Group_31"><path id="Vector_15" d="M63.086 142.095a1025.324 1025.324 0 01-3.14 6.812c-.334.738.137 1.732.877 1.963.815.279 1.602-.1 1.947-.87 1.058-2.266 2.083-4.545 3.141-6.812.334-.738-.137-1.732-.878-1.963-.792-.289-1.579.09-1.947.87z" fill="#D3CBCF"/></g></g><g id="Group_32"><g id="Group_33"><path id="Vector_16" d="M48.55 133.332c-.014.622-.115 1.229-.237 1.846-.002.055-.027.119-.051.184.06-.402.039-.151.024-.065l-.116.454c-.077.302-.186.592-.273.872-.406 1.172-.917 2.284-1.43 3.396-.333.738.138 1.732.879 1.964.814.278 1.6-.1 1.947-.871 1.072-2.353 2.158-4.793 2.275-7.442.042-.796-.49-1.629-1.345-1.701-.781-.026-1.65.523-1.673 1.363z" fill="#D3CBCF"/></g></g><g id="Group_34"><g id="Group_35"><path id="Vector_17" d="M85.327 144.04a9.46 9.46 0 01-.887 2.351c.058-.107.107-.236.188-.352-.493.916-1.125 1.761-1.808 2.548-.228.263-.324.761-.273 1.113.061.374.305.8.612 1.011.328.201.714.351 1.108.282.416-.079.718-.295 1.002-.609 1.3-1.545 2.39-3.264 2.86-5.241.104-.421.14-.758-.04-1.16-.15-.335-.494-.689-.837-.804-.375-.127-.81-.147-1.153.034-.31.138-.68.438-.772.827z" fill="#D3CBCF"/></g></g><g id="Group_36"><g id="Group_37"><path id="Vector_18" d="M128.309 109.593c-1.189 2.566-2.677 4.998-3.375 7.773-.104.421-.139.758.041 1.16.149.334.494.689.837.804.696.251 1.762-.038 1.947-.871.665-2.787 2.186-5.207 3.375-7.773.343-.716-.138-1.733-.878-1.964-.825-.3-1.579.09-1.947.871z" fill="#D3CBCF"/></g></g><g id="Group_38"><g id="Group_39"><path id="Vector_19" d="M51.227 67.4c-1.114 1.783-1.998 3.785-2.505 5.859-.104.42-.14.758.04 1.16.15.334.495.689.838.803.375.127.809.147 1.153-.033.322-.171.692-.47.794-.837.39-1.62 1.028-3.164 1.814-4.613-.059.107-.107.236-.188.352.154-.31.317-.597.503-.894.22-.34.322-.706.273-1.113-.061-.374-.305-.8-.612-1.011-.645-.435-1.658-.384-2.11.327z" fill="#D3CBCF"/></g></g><g id="Group_40"><g id="Group_41"><path id="Vector_20" d="M114.576 59.51c1.663-4.653 3.243-9.375 5.324-13.866.334-.738-.149-1.7-.878-1.963-.802-.31-1.613.132-1.947.87-2.071 4.513-3.638 9.203-5.314 13.888-.27.763.107 1.665.878 1.963.76.276 1.677-.107 1.937-.892z" fill="#D3CBCF"/></g></g></g></svg>