<svg width="105" height="104" fill="none" xmlns="http://www.w3.org/2000/svg"><g id="Group"><g id="Group_2"><g id="Group_3"><path id="Vector" d="M88.624 69.069c2.73-8.491 2.483-18.96-.548-27.332-2.091-5.763-6.876-13.27-14.129-11.662-6.352 1.417-8.995 9.047-8.895 14.825.122 6.489 1.989 13.36 5.353 18.936 1.657 2.749 3.895 5.447 6.87 6.858 3.123 1.487 6.417 1.188 9.497-.254 1.676-.782.159-3.212-1.501-2.446-11.045 5.145-16.44-13.046-17.212-20.648-.493-4.89.215-11.26 5.07-13.925 5.523-3.043 10.243 3.932 11.868 8.252 3.11 8.289 3.553 18.314.839 26.788-.561 1.735 2.228 2.375 2.788.608z" fill="#E1D4DB"/></g></g><g id="Group_4"><g id="Group_5"><path id="Vector_2" d="M86.436 68.492c-3.5-5.766-5.118-12.435-6.922-18.87-.493-1.782-3.252-.95-2.743.816 1.876 6.66 3.614 13.567 7.234 19.54.94 1.574 3.403.086 2.431-1.486z" fill="#E1D4DB"/></g></g><g id="Group_6"><g id="Group_7"><path id="Vector_3" d="M67 76.09c-4.407-3.163-8.906-6.194-13.591-8.959-5.346-3.165-11.316-6.635-17.547-7.586-2.197-.334-4.642-.337-6.527 1.002-2.075 1.475-2.641 4.084-2.582 6.495.086 3.786 1.183 7.767 3.511 10.77 2.666 3.444 6.48 5.768 10.524 7.21 8.663 3.075 20.742 2.545 26.125-5.999.988-1.553-1.563-2.88-2.535-1.344-4.196 6.676-13.801 7.08-20.643 5.273-3.771-.997-7.456-2.823-10.167-5.65-2.444-2.546-3.585-5.878-3.904-9.35-.1-1.13-.138-2.327.2-3.422.206-.687.624-1.3 1.02-1.587 1.25-.93 3.131-.829 4.841-.51 5.553 1.004 10.797 4.01 15.612 6.804a175.408 175.408 0 0111.518 7.39c.447.326.894.619 1.341.945.398.278.696.496.845.604 1.49 1.054 3.466-1.017 1.959-2.086z" fill="#E1D4DB"/></g></g><g id="Group_8"><g id="Group_9"><path id="Vector_4" d="M64.79 77.407c-6.17-1.05-12.021-3.308-17.971-5.094-1.765-.527-2.407 2.262-.641 2.79 5.95 1.785 11.801 4.044 17.97 5.094 1.808.315 2.465-2.492.642-2.79z" fill="#E1D4DB"/></g></g><g id="Group_10"><g id="Group_11"><path id="Vector_5" d="M55.6 47.111c-1.17-7.411-2.673-15.573-7.525-21.571-2.964-3.663-7.371-7.36-12.127-8.245-2.036-.372-4.165-.11-5.739 1.333-1.81 1.66-2.28 4.234-2.401 6.57-.295 6.098 3.57 11.61 7.98 15.436 4.827 4.186 11.133 7.499 17.608 7.956 1.833.12 1.727-2.743-.09-2.847-4.721-.319-9.41-2.647-13.218-5.343-4.124-2.929-7.976-7.016-9.155-12.08-.747-3.182-.407-8.893 4.097-8.275 3.935.522 7.629 3.675 10.195 6.524 4.917 5.495 6.4 13.577 7.511 20.618.284 1.804 3.147 1.729 2.864-.076z" fill="#E1D4DB"/></g></g><g id="Group_12"><g id="Group_13"><path id="Vector_6" d="M53.88 44.932c-3.904-3.665-7.383-7.716-11.286-11.38-1.335-1.253-3.31.818-1.959 2.086 3.904 3.665 7.382 7.716 11.286 11.38 1.352 1.269 3.31-.818 1.959-2.086z" fill="#E1D4DB"/></g></g></g></svg>