<svg width="23" height="22" fill="none" xmlns="http://www.w3.org/2000/svg"><g id="Insta" fill="#274C5B"><path id="Vector" d="M16.23 2.288a4.758 4.758 0 013.286 1.317 4.412 4.412 0 011.367 3.164v8.959a4.411 4.411 0 01-1.367 3.164 4.758 4.758 0 01-3.286 1.316H6.926a4.759 4.759 0 01-3.285-1.316 4.411 4.411 0 01-1.367-3.164v-8.96A4.411 4.411 0 013.64 3.606a4.759 4.759 0 013.285-1.317h9.304zm0-1.791H6.926C3.344.497.413 3.319.413 6.769v8.959C.413 19.178 3.344 22 6.926 22h9.304c3.583 0 6.514-2.822 6.514-6.272v-8.96c0-3.45-2.931-6.271-6.514-6.271z"/><path id="Vector_2" d="M17.626 6.77c-.276 0-.546-.08-.775-.227a1.356 1.356 0 01-.514-.603 1.297 1.297 0 01-.08-.777c.054-.26.187-.5.383-.688a1.41 1.41 0 01.714-.368 1.44 1.44 0 01.806.077c.256.101.474.274.627.495a1.309 1.309 0 01-.173 1.697c-.13.125-.284.224-.453.292a1.44 1.44 0 01-.535.101zm-6.047.895c.736 0 1.455.21 2.067.604.613.394 1.09.953 1.371 1.608.282.655.356 1.376.212 2.071a3.545 3.545 0 01-1.018 1.835 3.769 3.769 0 01-1.906.981 3.856 3.856 0 01-2.15-.204 3.695 3.695 0 01-1.67-1.32 3.49 3.49 0 01-.628-1.991 3.522 3.522 0 011.091-2.533 3.8 3.8 0 012.63-1.051zm0-1.792a5.737 5.737 0 00-3.102.906 5.425 5.425 0 00-2.056 2.413 5.191 5.191 0 00-.318 3.106c.216 1.043.747 2 1.528 2.752a5.652 5.652 0 002.859 1.471 5.782 5.782 0 003.225-.305 5.542 5.542 0 002.506-1.98 5.24 5.24 0 00.94-2.987 5.277 5.277 0 00-1.635-3.801 5.693 5.693 0 00-3.947-1.575z"/></g></svg>