<svg width="84" height="19" fill="none" xmlns="http://www.w3.org/2000/svg"><g id="Star" fill="#FFA858"><path id="Star 3" d="M8.678 3.094c.308-.904 1.586-.904 1.893 0l.984 2.89a1 1 0 00.947.677h3.08c.98 0 1.375 1.263.57 1.822l-2.411 1.672a1 1 0 00-.377 1.144l.94 2.76c.31.913-.724 1.693-1.517 1.144l-2.592-1.798a1 1 0 00-1.14 0l-2.593 1.798c-.792.55-1.827-.231-1.516-1.144l.94-2.76a1 1 0 00-.377-1.144L3.098 8.483c-.805-.559-.41-1.822.57-1.822h3.08a1 1 0 00.947-.678l.983-2.89z"/><path id="Star 4" d="M24.86 3.24c.3-.922 1.604-.922 1.903 0l.887 2.73a1 1 0 00.951.69h2.87c.97 0 1.372 1.24.588 1.81l-2.322 1.687a1 1 0 00-.363 1.118l.887 2.73c.3.922-.755 1.688-1.539 1.119l-2.323-1.688a1 1 0 00-1.175 0L22.9 15.124c-.783.57-1.838-.197-1.538-1.118l.887-2.73a1 1 0 00-.363-1.119L19.564 8.47c-.784-.57-.38-1.81.588-1.81h2.87a1 1 0 00.952-.69l.887-2.73z"/><path id="Star 5" d="M41.052 3.094c.308-.904 1.586-.904 1.893 0l.984 2.89a1 1 0 00.947.677h3.08c.98 0 1.375 1.263.57 1.822l-2.411 1.672a1 1 0 00-.377 1.144l.94 2.76c.31.913-.724 1.693-1.517 1.144l-2.592-1.798a1 1 0 00-1.14 0l-2.593 1.798c-.792.55-1.827-.231-1.516-1.144l.94-2.76a1 1 0 00-.377-1.144l-2.411-1.672c-.805-.559-.41-1.822.57-1.822h3.08a1 1 0 00.947-.678l.983-2.89z"/><path id="Star 6" d="M57.235 3.24c.3-.922 1.602-.922 1.902 0l.887 2.73a1 1 0 00.951.69h2.87c.97 0 1.372 1.24.588 1.81l-2.322 1.687a1 1 0 00-.363 1.118l.887 2.73c.3.922-.755 1.688-1.539 1.119l-2.322-1.688a1 1 0 00-1.176 0l-2.322 1.688c-.784.57-1.839-.197-1.54-1.118l.888-2.73a1 1 0 00-.364-1.119L51.938 8.47c-.784-.57-.38-1.81.588-1.81h2.87a1 1 0 00.952-.69l.887-2.73z"/><path id="Star 7" d="M73.426 3.094c.308-.904 1.586-.904 1.893 0l.984 2.89a1 1 0 00.947.677h3.08c.98 0 1.375 1.263.57 1.822l-2.411 1.672a1 1 0 00-.377 1.144l.94 2.76c.31.913-.724 1.693-1.517 1.144l-2.592-1.798a1 1 0 00-1.14 0l-2.593 1.798c-.792.55-1.827-.231-1.516-1.144l.94-2.76a1 1 0 00-.377-1.144l-2.411-1.672c-.805-.559-.41-1.822.57-1.822h3.08a1 1 0 00.947-.678l.983-2.89z"/></g></svg>